Fly_normalized_Motion_pl02
version=1
nRows=14
nColumns=43
inDegrees=yes
endheader
time		pelvis_tilt		pelvis_list		pelvis_rotation		pelvis_tx		pelvis_ty		pelvis_tz		hip_flexion_r		hip_adduction_r		hip_rotation_r		knee_angle_r		ankle_angle_r		subtalar_angle_r		mtp_angle_r		hip_flexion_l		hip_adduction_l		hip_rotation_l		knee_angle_l		ankle_angle_l		subtalar_angle_l		mtp_angle_l		lumbar_extension		lumbar_bending		lumbar_rotation		neck_flexion		neck_lateral_bending		neck_rotation		arm_flex_r		arm_add_r		arm_rot_r		elbow_flex_r		pro_sup_r		wrist_flex_r		wrist_dev_r		hand_finger_flex_r		arm_flex_l		arm_add_l		arm_rot_l		elbow_flex_l		pro_sup_l		wrist_flex_l		wrist_dev_l		hand_finger_flex_l		
3.502500		5.818023		-5.718370		95.506628		-0.045391		1.382211		0.820523		39.664298		-1.146947		-14.422324		-36.896554		-17.390938		11.197053		29.096292		38.954939		-8.113730		-2.577183		-39.071676		-19.152055		3.796992		11.764802		-34.100743		9.011604		4.504445		-9.368401		2.117335		-5.179607		-29.204153		-18.176126		-19.188798		49.689466		117.369817		-6.825264		-6.055470		-42.631099		-47.387297		-40.232709		-27.333143		87.167358		135.895060		-0.883322		-5.766438		-17.224324		
3.506515		5.780597		-5.752072		95.594386		-0.046109		1.370750		0.811203		39.029117		-1.176707		-14.603940		-35.423554		-17.475747		11.250939		29.038493		38.369833		-7.987060		-2.939009		-37.507159		-19.309469		3.946186		11.738197		-33.252903		9.075302		4.358503		-10.697761		2.114357		-5.360625		-31.936420		-17.669427		-19.314526		50.444345		116.977385		-7.069759		-5.888516		-42.645133		-50.890109		-39.498651		-28.811933		88.108292		135.796735		-0.831416		-6.275704		-16.917738		
3.510530		5.700174		-5.752907		95.636476		-0.046781		1.359049		0.801781		38.374716		-1.248259		-14.808614		-34.012430		-17.521229		11.269262		28.965978		37.763575		-7.863461		-3.342566		-36.029724		-19.418493		4.082634		11.723771		-32.424531		9.063136		4.097366		-12.129076		2.214163		-5.452785		-34.583112		-17.196809		-19.364172		51.270168		116.548533		-7.228606		-5.600398		-42.610835		-54.546189		-38.580945		-30.505950		89.058340		135.664608		-0.660939		-6.806087		-16.504540		
3.514545		5.675427		-5.898708		95.698268		-0.047714		1.347278		0.792287		37.797408		-1.316376		-15.123995		-32.468024		-17.364568		11.359585		28.939014		37.126062		-7.711709		-3.672081		-34.164172		-19.446289		4.091702		11.698279		-31.498259		9.149209		4.170016		-13.053266		2.229034		-5.635354		-37.276553		-16.581924		-19.582516		51.871605		116.392252		-7.426216		-5.616280		-42.665333		-57.641000		-38.024766		-31.399338		89.836350		135.557525		-0.637222		-7.137935		-16.334215		
3.518561		5.594537		-5.896747		95.797642		-0.048387		1.335315		0.782904		37.112047		-1.388774		-15.352126		-31.043540		-17.249391		11.455942		28.907668		36.531965		-7.575050		-4.040146		-32.681847		-19.528634		4.096627		11.678075		-30.675078		9.147395		4.015331		-14.472896		2.301292		-5.877130		-39.994647		-15.850669		-19.941507		52.839357		116.186198		-7.614119		-5.643144		-42.691571		-61.018783		-37.202093		-32.727952		90.838313		135.352721		-0.612602		-7.448892		-16.108083		
3.522576		5.365773		-5.729342		95.867847		-0.048439		1.323167		0.773228		36.319098		-1.428762		-15.069060		-29.823801		-17.399913		10.889608		28.752324		35.902442		-7.415456		-4.639089		-31.574805		-19.567612		4.342068		11.774247		-29.893933		8.774726		3.158953		-16.654400		2.938961		-5.159623		-42.199182		-15.585565		-19.630506		53.850202		115.527198		-6.728971		-4.503184		-41.998615		-65.048107		-35.232644		-35.443378		92.448240		134.663538		0.519110		-7.507377		-14.847471		
3.526591		5.337166		-5.805457		95.984271		-0.048962		1.310661		0.763864		35.790108		-1.467533		-15.366431		-28.611377		-17.119071		10.912926		28.709582		35.364085		-7.316114		-4.997262		-30.003081		-19.659508		4.365366		11.778413		-29.037916		8.822105		3.162784		-17.433301		2.962009		-5.298950		-44.915707		-14.715659		-20.011086		54.812790		115.412541		-7.046051		-4.727964		-42.053605		-68.034297		-34.505268		-36.333818		93.326049		134.522420		0.501576		-7.623430		-14.685838		
3.530606		5.299850		-5.798740		96.063698		-0.049261		1.298141		0.754548		35.158496		-1.439813		-15.527575		-27.376328		-17.064110		10.622987		28.646933		34.899745		-7.273160		-5.398764		-28.774521		-19.794436		4.481594		11.824062		-28.230894		8.802782		3.053214		-18.759143		3.034204		-5.386696		-47.496819		-13.825425		-20.528205		55.899523		115.184530		-7.121019		-4.817190		-41.934418		-71.142298		-33.464599		-37.529234		94.468964		134.222839		0.644445		-7.506786		-14.385461		
3.534621		5.270208		-5.820417		96.149550		-0.049530		1.285422		0.745198		34.574830		-1.392457		-15.551658		-26.168018		-17.131507		10.095540		28.550429		34.452038		-7.235999		-5.858232		-27.546456		-19.839062		4.682179		11.939154		-27.392636		8.763643		2.934493		-20.003846		3.171368		-5.293353		-49.904506		-13.000202		-20.965092		56.849164		114.885868		-6.894486		-4.696979		-41.618582		-74.102648		-32.350564		-38.684316		95.693320		133.799922		1.056918		-7.130190		-13.918383		
3.538636		5.258377		-5.845272		96.238403		-0.050000		1.272507		0.736024		34.032354		-1.385317		-15.650881		-24.988667		-17.222503		9.875774		28.497122		33.975370		-7.173776		-6.264060		-26.231603		-19.902092		4.741056		11.995898		-26.605838		8.788283		2.885676		-20.976942		3.160267		-5.363235		-52.299936		-12.065015		-21.519417		57.855806		114.702314		-6.939060		-4.808437		-41.537897		-76.951211		-31.292199		-39.649898		96.898419		133.499158		1.214510		-7.014485		-13.694484		
3.542652		5.192397		-5.825963		96.344410		-0.050608		1.259561		0.726839		33.447482		-1.444578		-15.598869		-23.793898		-17.403629		9.677828		28.446060		33.485919		-7.049609		-6.647024		-25.039673		-19.954121		4.771128		12.060131		-25.873777		8.781307		2.798990		-22.013641		3.167547		-5.410180		-54.553639		-11.119035		-22.100512		58.797067		114.508911		-6.897031		-4.849459		-41.442847		-79.647982		-30.195846		-40.588070		98.116458		133.175177		1.465756		-6.861155		-13.445780		
3.546667		5.063760		-5.752921		96.469573		-0.051376		1.246548		0.717673		32.834396		-1.595839		-15.423046		-22.656913		-17.613986		9.551008		28.395766		32.931703		-6.832671		-6.991021		-23.839020		-20.007277		4.745398		12.133280		-25.209483		8.725354		2.667631		-23.056635		3.187303		-5.455499		-56.667730		-10.169048		-22.742437		59.707950		114.320947		-6.815367		-4.820887		-41.353547		-82.227995		-29.067802		-41.518457		99.407722		132.821712		1.829404		-6.720439		-13.159994		
3.550682		4.886318		-5.653393		96.601206		-0.052217		1.233535		0.708652		32.220809		-1.815672		-15.185451		-21.580466		-17.754761		9.480377		28.351193		32.356341		-6.553149		-7.252243		-22.675480		-20.073845		4.665541		12.204810		-24.621634		8.638334		2.515685		-23.949860		3.185817		-5.528203		-58.553646		-9.202990		-23.367819		60.490567		114.168518		-6.769333		-4.752389		-41.295327		-84.597048		-27.950797		-42.332439		100.661048		132.494121		2.243028		-6.670992		-12.870073		
3.554697		4.687041		-5.503931		96.759117		-0.053171		1.220496		0.699759		31.599054		-2.075357		-14.890249		-20.632082		-17.884058		9.379217		28.309268		31.741646		-6.227873		-7.438405		-21.526393		-20.178372		4.534189		12.279745		-24.115123		8.544150		2.342476		-24.800292		3.177353		-5.654020		-60.253083		-8.252651		-24.058894		61.188521		114.043311		-6.800133		-4.647925		-41.264991		-86.810983		-26.823872		-43.170491		101.914294		132.194355		2.711089		-6.721656		-12.558643		
